# xmcd
#
# Track frame offsets: 
#        150
#        14110
#        27522
#        37120
#        49297
#        66782
#        79010
#        91792
#        105790
#        118012
#        131100
#        149585
#        158432
#        170847
#        184362
#        198280
#        213215
#        224580
#        234882
#        247412
#        262432
#        277392
#        288117
#        301862
#
# Disc length: 4153 seconds
#
# Revision: 0
# Processed by: cddbd v1.5.2PL0 Copyright (c) Steve Scherf et al.
# Submitted via: ExactAudioCopy v1.0b3
#
DISCID=76103718
DTITLE=Roy Rogers and Dale Evans - Roy Rogers and Dale Evans
DYEAR=1997
DGENRE=Gospel
TTITLE0=Precious Memories
TTITLE1=A Little White Cross on the Hill
TTITLE2=Do What the Good Book Says
TTITLE3=Love Lifted Me
TTITLE4=The Light of the World in Jesus
TTITLE5=In the Garden
TTITLE6=The Old Rugged Cross
TTITLE7=Sweet Hour of Prayer
TTITLE8=Near the Cross
TTITLE9=Cowboy Heaven
TTITLE10=Near to the Heart of God
TTITLE11=Jesus Loves Me
TTITLE12=I Hope There'll Always Be Pine Trees in Heaven
TTITLE13=Where He Leads Me
TTITLE14=He is So Precious To Me
TTITLE15=(There'll Be) Peace in the Valley
TTITLE16=The Lamp of Faith
TTITLE17=Good Luck, Good Health God Bless You
TTITLE18=I Love to Tell the Story
TTITLE19=A Cowboy Sunday Prayer
TTITLE20=What A Friend We Have in Jesus
TTITLE21=May the Good Lord Take A Likin' To Ya
TTITLE22=Since Jesus Came Into My Heart
TTITLE23=The Bible Tells Me So
EXTD=
EXTT0=
EXTT1=
EXTT2=
EXTT3=
EXTT4=
EXTT5=
EXTT6=
EXTT7=
EXTT8=
EXTT9=
EXTT10=
EXTT11=
EXTT12=
EXTT13=
EXTT14=
EXTT15=
EXTT16=
EXTT17=
EXTT18=
EXTT19=
EXTT20=
EXTT21=
EXTT22=
EXTT23=
PLAYORDER=
